<?xml version="1.0" encoding="UTF-8"?>
<!DOCTYPE svg PUBLIC "-//W3C//DTD SVG 1.1//EN" "http://www.w3.org/Graphics/SVG/1.1/DTD/svg11.dtd">
<!-- Creator: CorelDRAW 2020 (64-Bit) -->
<svg xmlns="http://www.w3.org/2000/svg" xml:space="preserve" width="246.235mm" height="114.777mm" version="1.1" style="shape-rendering:geometricPrecision; text-rendering:geometricPrecision; image-rendering:optimizeQuality; fill-rule:evenodd; clip-rule:evenodd"
viewBox="0 0 25146.87 11721.7"
 xmlns:xlink="http://www.w3.org/1999/xlink"
 xmlns:xodm="http://www.corel.com/coreldraw/odm/2003">
 <defs>
  <style type="text/css">
   <![CDATA[
    .fil0 {fill:#FEFEFE;fill-rule:nonzero}
    .fil1 {fill:#00AA5A;fill-rule:nonzero}
    .fil2 {fill:#007EC4;fill-rule:nonzero}
   ]]>
  </style>
 </defs>
 <g id="Layer_x0020_1">
  <metadata id="CorelCorpID_0Corel-Layer"/>
  <g>
   <path class="fil0" d="M2563.78 6549.45l0 -6472.83 150.12 0 0 6472.83 -75.06 76.61 -75.06 -76.61zm75.06 76.61l-75.06 0 0 -76.61 75.06 76.61zm455.4 0l-455.4 0 0 -153.23 455.4 0 66.52 112.1 -66.52 41.13zm66.52 -41.13l-21.06 41.13 -45.47 0 66.52 -41.13zm1551.76 -3029.84l-1551.76 3029.84 -133.05 -70.98 1551.76 -3029.84 66.52 -41.13 66.52 112.1zm-133.05 -70.98l21.06 -41.13 45.47 0 -66.52 41.13zm2900.16 112.1l-2833.64 0 0 -153.23 2833.64 0 64.68 115.51 -64.68 37.71zm0 -153.23l131.37 0 -66.7 115.51 -64.68 -115.51zm-2291.12 3893.88l2226.44 -3856.16 129.35 77.8 -2226.44 3856.16 -127.14 3.59 -2.22 -81.39zm2.22 81.39l-26.12 -39.99 23.91 -41.4 2.22 81.39zm2732.44 4183.24l-2732.44 -4183.24 124.92 -84.99 2732.44 4183.24 -62.46 119.11 -62.46 -34.12zm124.92 -84.99l77.8 119.11 -140.26 0 62.46 -119.11zm-3064.77 -34.12l3002.31 0 0 153.23 -3002.31 0 -64.76 -37.86 64.76 -115.37zm0 153.23l-43.01 0 -21.75 -37.86 64.76 37.86zm-1824.33 -3403.43l1889.09 3288.06 -129.52 77.51 -1889.09 -3288.06 64.76 -115.37 64.76 37.86zm-64.76 -37.86l43.01 0 21.75 37.86 -64.76 -37.86zm-455.4 0l455.4 0 0 153.23 -455.4 0 -75.06 -76.61 75.06 -76.61zm-75.06 76.61l0 -76.61 75.06 0 -75.06 76.61zm0 3288.06l0 -3288.06 150.12 0 0 3288.06 -75.06 76.61 -75.06 -76.61zm150.12 0l0 76.61 -75.06 0 75.06 -76.61zm-2638.84 -76.61l2563.78 0 0 153.23 -2563.78 0 -75.06 -76.61 75.06 -76.61zm0 153.23l-75.06 0 0 -76.61 75.06 76.61zm75.06 -11559l0 11482.39 -150.12 0 0 -11482.39 75.06 -76.61 75.06 76.61zm-150.12 0l0 -76.61 75.06 0 -75.06 76.61zm2638.84 76.61l-2563.78 0 0 -153.23 2563.78 0 75.06 76.61 -75.06 76.61zm0 -153.23l75.06 0 0 76.61 -75.06 -76.61zm22432.97 8950.09l-2496.31 0 0 -153.23 2496.31 0 75.06 76.61 -75.06 76.61zm0 -153.23l75.06 0 0 76.61 -75.06 -76.61zm-922.1 2479.07l-61.77 -139.67 0 0 55.19 -27.17 53.38 -29.79 51.58 -32.46 49.85 -35.13 48.11 -37.8 46.41 -40.52 44.71 -43.23 43.03 -46 41.37 -48.81 39.71 -51.59 38.04 -54.43 36.37 -57.29 34.69 -60.17 33.01 -63.06 31.3 -65.96 29.6 -68.88 27.88 -71.81 26.14 -74.74 24.39 -77.68 22.65 -80.61 20.86 -83.54 19.09 -86.48 17.31 -89.42 15.51 -92.34 13.71 -95.26 11.89 -98.2 10.08 -101.12 8.25 -104.03 6.43 -106.96 4.59 -109.87 2.77 -112.77 0.92 -115.67 150.12 0 -0.94 118.2 -2.83 115.4 -4.71 112.64 -6.6 109.86 -8.5 107.11 -10.41 104.33 -12.3 101.57 -14.22 98.82 -16.13 96.06 -18.07 93.3 -19.99 90.56 -21.95 87.83 -23.9 85.06 -25.86 82.31 -27.84 79.58 -29.82 76.82 -31.82 74.07 -33.83 71.29 -35.87 68.52 -37.9 65.73 -39.94 62.93 -42 60.11 -44.06 57.25 -46.11 54.38 -48.17 51.49 -50.2 48.56 -52.25 45.61 -54.26 42.64 -56.26 39.65 -58.22 36.62 -60.16 33.59 -62.07 30.56 0 0zm-2619.95 445.77l0 -153.23 0 0 100.96 -0.43 99.61 -1.28 98.26 -2.13 96.93 -2.97 95.56 -3.83 94.19 -4.68 92.85 -5.54 91.49 -6.38 90.15 -7.22 88.79 -8.08 87.43 -8.92 86.08 -9.76 84.7 -10.61 83.37 -11.46 82.01 -12.29 80.63 -13.14 79.28 -13.98 77.93 -14.82 76.56 -15.65 75.21 -16.49 73.84 -17.33 72.48 -18.16 71.12 -19 69.75 -19.82 68.39 -20.65 67.03 -21.48 65.67 -22.3 64.32 -23.13 62.95 -23.94 61.57 -24.77 60.22 -25.58 58.87 -26.4 61.77 139.67 -61.6 27.62 -62.9 26.71 -64.21 25.83 -65.52 24.92 -66.81 24.03 -68.14 23.14 -69.44 22.25 -70.74 21.36 -72.04 20.48 -73.37 19.59 -74.66 18.71 -75.96 17.82 -77.27 16.94 -78.59 16.07 -79.89 15.19 -81.2 14.33 -82.51 13.43 -83.82 12.57 -85.12 11.7 -86.44 10.82 -87.76 9.97 -89.06 9.08 -90.36 8.22 -91.7 7.34 -92.99 6.48 -94.32 5.62 -95.64 4.76 -96.95 3.87 -98.26 3.03 -99.58 2.15 -100.9 1.3 -102.21 0.43 0 0zm-3212.54 -811.37l100 -114.28 0 0 53.38 46.71 56.16 45.3 58.97 43.91 61.77 42.53 64.59 41.12 67.41 39.69 70.25 38.29 73.08 36.85 75.93 35.4 78.78 33.96 81.63 32.5 84.48 31.05 87.33 29.56 90.18 28.09 93.03 26.59 95.89 25.11 98.72 23.62 101.56 22.11 104.41 20.61 107.24 19.11 110.09 17.58 112.92 16.06 115.76 14.54 118.59 13.03 121.42 11.49 124.24 9.98 127.07 8.45 129.89 6.9 132.71 5.37 135.54 3.85 138.35 2.3 141.17 0.78 0 153.23 -142.78 -0.78 -140.04 -2.34 -137.28 -3.89 -134.53 -5.45 -131.79 -7.01 -129.06 -8.57 -126.3 -10.14 -123.56 -11.69 -120.83 -13.28 -118.09 -14.85 -115.35 -16.41 -112.62 -17.98 -109.9 -19.58 -107.17 -21.14 -104.44 -22.74 -101.73 -24.34 -98.99 -25.93 -96.27 -27.53 -93.57 -29.14 -90.84 -30.76 -88.13 -32.37 -85.41 -34.01 -82.68 -35.63 -79.97 -37.3 -77.25 -38.95 -74.52 -40.59 -71.78 -42.28 -69.05 -43.95 -66.3 -45.63 -63.54 -47.32 -60.77 -49.04 -57.98 -50.74 0 0zm-893.71 -3224.7l150.12 0 0 0 0.85 146.02 2.52 142.88 4.22 139.76 5.89 136.62 7.58 133.48 9.24 130.33 10.93 127.19 12.6 124.04 14.27 120.9 15.93 117.75 17.61 114.57 19.25 111.44 20.91 108.27 22.56 105.1 24.19 101.94 25.84 98.78 27.47 95.62 29.09 92.42 30.71 89.27 32.3 86.1 33.91 82.92 35.5 79.77 37.06 76.59 38.63 73.43 40.2 70.29 41.74 67.16 43.28 64.03 44.81 60.9 46.33 57.81 47.87 54.73 49.4 51.67 50.91 48.63 -100 114.28 -55.98 -53.45 -54.1 -56.59 -52.24 -59.73 -50.36 -62.82 -48.51 -65.92 -46.63 -69 -44.78 -72.04 -42.95 -75.09 -41.11 -78.13 -39.27 -81.17 -37.46 -84.18 -35.66 -87.21 -33.85 -90.23 -32.08 -93.23 -30.29 -96.26 -28.51 -99.28 -26.76 -102.29 -25.01 -105.31 -23.23 -108.32 -21.52 -111.36 -19.76 -114.38 -18.04 -117.41 -16.3 -120.45 -14.57 -123.47 -12.85 -126.51 -11.13 -129.56 -9.41 -132.6 -7.7 -135.64 -5.97 -138.69 -4.28 -141.74 -2.56 -144.8 -0.85 -147.84 0 0zm714.74 -3299.25l120.61 91.24 0.01 0 -41.54 59.38 -40.3 61.98 -39.05 64.59 -37.79 67.25 -36.54 69.86 -35.26 72.51 -33.99 75.15 -32.71 77.8 -31.41 80.45 -30.13 83.09 -28.82 85.74 -27.53 88.4 -26.2 91.02 -24.9 93.7 -23.57 96.31 -22.23 98.98 -20.92 101.63 -19.59 104.25 -18.24 106.89 -16.89 109.54 -15.57 112.17 -14.21 114.8 -12.88 117.43 -11.52 120.06 -10.17 122.69 -8.81 125.32 -7.48 127.95 -6.11 130.57 -4.76 133.18 -3.39 135.82 -2.04 138.43 -0.68 141.04 -150.12 0 0.68 -142.57 2.06 -140 3.43 -137.45 4.82 -134.88 6.19 -132.34 7.58 -129.77 8.96 -127.22 10.34 -124.67 11.72 -122.12 13.1 -119.58 14.49 -117.03 15.88 -114.48 17.28 -111.93 18.67 -109.41 20.08 -106.86 21.47 -104.32 22.87 -101.78 24.29 -99.26 25.69 -96.72 27.11 -94.19 28.53 -91.67 29.96 -89.11 31.39 -86.6 32.84 -84.07 34.28 -81.54 35.72 -79.01 37.2 -76.47 38.64 -73.93 40.14 -71.4 41.61 -68.84 43.1 -66.29 44.59 -63.73 0.01 0zm3104.78 -995.04l0 153.23 0 0 -143.96 0.93 -140.7 2.81 -137.45 4.68 -134.19 6.54 -130.91 8.39 -127.66 10.26 -124.39 12.11 -121.11 13.97 -117.84 15.81 -114.55 17.67 -111.28 19.5 -108 21.34 -104.71 23.16 -101.41 24.99 -98.13 26.81 -94.83 28.6 -91.55 30.41 -88.24 32.19 -84.95 33.97 -81.67 35.73 -78.36 37.5 -75.09 39.24 -71.81 40.96 -68.55 42.7 -65.31 44.4 -62.05 46.1 -58.84 47.8 -55.64 49.49 -52.45 51.2 -49.3 52.89 -46.18 54.59 -43.06 56.31 -120.61 -91.24 47.65 -62.32 50.96 -60.26 54.26 -58.2 57.52 -56.14 60.76 -54.07 63.99 -51.99 67.2 -49.92 70.37 -47.86 73.55 -45.8 76.72 -43.76 79.85 -41.73 83 -39.71 86.14 -37.69 89.26 -35.7 92.4 -33.7 95.53 -31.74 98.65 -29.76 101.79 -27.81 104.92 -25.85 108.06 -23.9 111.18 -21.98 114.34 -20.03 117.48 -18.12 120.62 -16.2 123.77 -14.28 126.92 -12.36 130.09 -10.45 133.22 -8.56 136.4 -6.64 139.55 -4.74 142.72 -2.85 145.9 -0.95 0 0zm2963.02 712.53l-90.07 122.57 0 0.01 -56.02 -41.43 -58.17 -40.17 -60.32 -38.91 -62.49 -37.65 -64.66 -36.37 -66.83 -35.11 -69.02 -33.81 -71.19 -32.55 -73.38 -31.25 -75.56 -29.96 -77.76 -28.67 -79.93 -27.37 -82.13 -26.05 -84.33 -24.75 -86.51 -23.44 -88.69 -22.12 -90.89 -20.79 -93.08 -19.47 -95.26 -18.14 -97.44 -16.81 -99.63 -15.47 -101.81 -14.13 -103.99 -12.81 -106.17 -11.45 -108.35 -10.12 -110.53 -8.77 -112.71 -7.42 -114.88 -6.08 -117.05 -4.73 -119.23 -3.38 -121.4 -2.02 -123.56 -0.68 0 -153.23 125.2 0.68 123.07 2.06 120.97 3.42 118.84 4.81 116.74 6.18 114.65 7.55 112.53 8.94 110.43 10.3 108.31 11.69 106.22 13.07 104.12 14.46 102.02 15.84 99.91 17.24 97.82 18.63 95.73 20.02 93.63 21.43 91.55 22.81 89.43 24.23 87.35 25.62 85.25 27.05 83.16 28.47 81.07 29.89 78.97 31.31 76.87 32.74 74.79 34.18 72.67 35.63 70.57 37.07 68.48 38.51 66.35 39.98 64.24 41.42 62.11 42.9 59.98 44.35 0 0.01zm940.83 2962.01l-150.12 0 0 0 -0.89 -135.21 -2.65 -132.23 -4.41 -129.24 -6.17 -126.25 -7.91 -123.26 -9.68 -120.25 -11.44 -117.25 -13.18 -114.25 -14.92 -111.25 -16.67 -108.24 -18.4 -105.23 -20.12 -102.21 -21.85 -99.19 -23.57 -96.18 -25.29 -93.17 -26.97 -90.15 -28.68 -87.11 -30.36 -84.12 -32.04 -81.08 -33.71 -78.08 -35.37 -75.07 -37.01 -72.07 -38.65 -69.07 -40.29 -66.1 -41.9 -63.11 -43.53 -60.16 -45.14 -57.22 -46.75 -54.3 -48.38 -51.41 -49.98 -48.51 -51.62 -45.65 -53.25 -42.82 90.07 -122.57 58.82 47.27 56.89 50.33 54.96 53.35 53.03 56.35 51.08 59.32 49.14 62.29 47.2 65.25 45.25 68.16 43.33 71.08 41.39 73.97 39.48 76.87 37.57 79.75 35.67 82.61 33.77 85.51 31.89 88.35 30.05 91.24 28.16 94.09 26.31 96.95 24.47 99.84 22.61 102.69 20.79 105.56 18.95 108.44 17.14 111.29 15.33 114.19 13.49 117.07 11.7 119.93 9.89 122.83 8.08 125.71 6.29 128.6 4.49 131.49 2.69 134.4 0.89 137.28 0 0zm-150.12 929.61l0 -929.61 150.12 0 0 929.61 -75.06 76.61 -75.06 -76.61zm150.12 0l0 76.61 -75.06 0 75.06 -76.61zm-5118.27 -76.61l5043.21 0 0 153.23 -5043.21 0 -75.06 -76.61 75.06 -76.61zm-75.06 76.61l0 -76.61 75.06 0 -75.06 76.61zm338.11 1347.18l-138.14 60.05 0.01 0 -12.56 -31.02 -12.12 -31.86 -11.68 -32.66 -11.26 -33.49 -10.85 -34.33 -10.42 -35.15 -10.01 -35.98 -9.6 -36.82 -9.18 -37.64 -8.78 -38.46 -8.37 -39.31 -7.98 -40.15 -7.58 -40.98 -7.17 -41.82 -6.78 -42.66 -6.38 -43.51 -5.98 -44.33 -5.6 -45.19 -5.21 -46.04 -4.82 -46.88 -4.42 -47.73 -4.04 -48.57 -3.65 -49.42 -3.27 -50.29 -2.88 -51.12 -2.49 -51.98 -2.1 -52.84 -1.73 -53.68 -1.35 -54.56 -0.96 -55.4 -0.56 -56.25 -0.19 -57.12 150.12 0 0.19 56.06 0.56 55.17 0.94 54.28 1.31 53.39 1.69 52.49 2.06 51.59 2.43 50.72 2.8 49.8 3.19 48.92 3.54 48.01 3.92 47.12 4.28 46.22 4.66 45.3 5.02 44.42 5.39 43.5 5.76 42.62 6.12 41.71 6.47 40.78 6.84 39.88 7.21 38.98 7.55 38.06 7.92 37.14 8.27 36.25 8.61 35.32 8.97 34.41 9.31 33.49 9.66 32.56 9.99 31.64 10.35 30.73 10.66 29.82 10.98 28.86 11.32 27.95 0.01 0zm1153.78 418.21l0 153.23 0 0 -64.55 -0.46 -62.98 -1.39 -61.42 -2.32 -59.85 -3.24 -58.27 -4.18 -56.72 -5.13 -55.17 -6.06 -53.62 -7.01 -52.08 -7.98 -50.54 -8.93 -49.01 -9.91 -47.47 -10.88 -45.95 -11.87 -44.43 -12.88 -42.9 -13.89 -41.4 -14.93 -39.87 -15.97 -38.35 -17.02 -36.84 -18.13 -35.28 -19.22 -33.76 -20.34 -32.19 -21.5 -30.6 -22.63 -28.99 -23.81 -27.34 -24.97 -25.67 -26.15 -23.96 -27.33 -22.18 -28.47 -20.39 -29.59 -18.59 -30.71 -16.71 -31.77 -14.83 -32.76 138.14 -60.05 11.05 24.43 12.42 23.62 13.83 22.85 15.27 22.15 16.73 21.47 18.22 20.79 19.77 20.13 21.37 19.52 22.97 18.86 24.63 18.22 26.31 17.56 27.98 16.87 29.73 16.18 31.44 15.47 33.18 14.74 34.93 13.99 36.66 13.22 38.41 12.44 40.15 11.63 41.9 10.83 43.63 10 45.35 9.17 47.09 8.31 48.82 7.47 50.53 6.6 52.25 5.75 53.94 4.86 55.66 3.99 57.35 3.11 59.05 2.22 60.73 1.35 62.43 0.44 0 0zm787.02 -169.33l78.88 130.37 0.01 0 -19.84 12.14 -20.32 11.72 -20.8 11.31 -21.25 10.89 -21.74 10.48 -22.21 10.07 -22.67 9.66 -23.14 9.26 -23.6 8.84 -24.07 8.46 -24.52 8.05 -24.98 7.67 -25.44 7.27 -25.9 6.88 -26.38 6.5 -26.82 6.11 -27.3 5.72 -27.74 5.35 -28.2 4.96 -28.69 4.6 -29.13 4.21 -29.59 3.84 -30.06 3.48 -30.53 3.1 -31 2.73 -31.44 2.37 -31.93 2 -32.39 1.62 -32.83 1.27 -33.33 0.91 -33.8 0.55 -34.26 0.17 0 -153.23 32.71 -0.17 32.17 -0.51 31.68 -0.87 31.16 -1.21 30.64 -1.54 30.1 -1.88 29.59 -2.23 29.08 -2.56 28.52 -2.9 28.03 -3.24 27.5 -3.57 26.98 -3.9 26.42 -4.23 25.93 -4.58 25.39 -4.88 24.87 -5.23 24.33 -5.54 23.81 -5.86 23.28 -6.19 22.74 -6.5 22.22 -6.81 21.7 -7.13 21.17 -7.43 20.64 -7.74 20.1 -8.04 19.61 -8.35 19.07 -8.64 18.54 -8.95 18.05 -9.23 17.51 -9.53 16.99 -9.8 16.49 -10.1 0.01 0zm267.99 -700.88l150.12 0 -0.03 2.26 -1.36 37.38 -1.92 36.64 -2.45 35.92 -3.02 35.17 -3.56 34.44 -4.14 33.73 -4.7 32.99 -5.27 32.26 -5.85 31.55 -6.42 30.81 -7.01 30.1 -7.61 29.37 -8.2 28.66 -8.8 27.93 -9.43 27.22 -10.04 26.48 -10.67 25.77 -11.3 25.02 -11.96 24.31 -12.6 23.54 -13.26 22.79 -13.92 22.01 -14.59 21.26 -15.28 20.45 -15.91 19.64 -16.63 18.83 -17.26 17.98 -17.93 17.13 -18.59 16.25 -19.21 15.37 -19.86 14.47 -20.46 13.54 -78.88 -130.37 14.86 -9.84 14.41 -10.49 13.98 -11.18 13.58 -11.88 13.15 -12.57 12.79 -13.31 12.38 -14.03 12.01 -14.82 11.62 -15.56 11.22 -16.36 10.86 -17.17 10.46 -17.97 10.07 -18.8 9.65 -19.63 9.25 -20.49 8.83 -21.33 8.4 -22.17 7.98 -23.05 7.54 -23.89 7.08 -24.76 6.63 -25.61 6.17 -26.48 5.71 -27.34 5.22 -28.18 4.74 -29.05 4.27 -29.9 3.77 -30.75 3.28 -31.62 2.78 -32.46 2.29 -33.3 1.78 -34.15 1.28 -34.99 -0.03 2.26zm150.12 0l0 1.19 -0.03 1.06 0.03 -2.26zm0 -17.2l0 17.2 -150.12 0 0 -17.2 75.06 -76.61 75.06 76.61zm-150.12 0l0 -76.61 75.06 0 -75.06 76.61zm-215.74 -3201.13l109.34 -105.03 0 0.01 18.31 20.54 17.7 21.25 17.08 21.94 16.46 22.63 15.87 23.33 15.24 24 14.62 24.65 14.02 25.32 13.4 25.99 12.8 26.62 12.19 27.28 11.59 27.91 10.99 28.55 10.41 29.19 9.8 29.81 9.22 30.44 8.65 31.1 8.06 31.7 7.49 32.34 6.91 32.95 6.35 33.58 5.78 34.22 5.22 34.85 4.67 35.46 4.1 36.09 3.56 36.73 2.99 37.36 2.45 37.99 1.91 38.62 1.35 39.26 0.82 39.89 0.27 40.52 -150.12 0 -0.27 -38.42 -0.76 -37.73 -1.29 -36.99 -1.79 -36.3 -2.29 -35.58 -2.81 -34.85 -3.3 -34.16 -3.81 -33.44 -4.3 -32.72 -4.79 -32.01 -5.29 -31.28 -5.78 -30.56 -6.26 -29.86 -6.75 -29.14 -7.22 -28.41 -7.69 -27.69 -8.18 -26.97 -8.64 -26.28 -9.1 -25.55 -9.56 -24.84 -10.02 -24.13 -10.48 -23.44 -10.92 -22.72 -11.38 -22.03 -11.82 -21.35 -12.26 -20.67 -12.68 -19.98 -13.13 -19.3 -13.58 -18.67 -14.01 -17.99 -14.45 -17.35 -14.9 -16.72 0 0.01zm-873.02 -268.55l0 -153.23 0 0 41.78 0.3 41.05 0.88 40.35 1.47 39.62 2.06 38.9 2.66 38.21 3.24 37.49 3.86 36.79 4.45 36.06 5.06 35.37 5.65 34.65 6.28 33.96 6.88 33.26 7.52 32.55 8.13 31.83 8.75 31.13 9.4 30.44 10.03 29.72 10.68 29 11.32 28.31 11.98 27.58 12.64 26.87 13.3 26.14 13.97 25.41 14.64 24.65 15.32 23.92 15.99 23.18 16.68 22.41 17.38 21.62 18.06 20.82 18.71 20.04 19.4 19.24 20.08 -109.34 105.03 -15.26 -15.93 -15.97 -15.46 -16.7 -15.01 -17.41 -14.54 -18.14 -14.05 -18.89 -13.61 -19.67 -13.15 -20.45 -12.68 -21.2 -12.23 -21.98 -11.74 -22.78 -11.27 -23.58 -10.8 -24.37 -10.3 -25.18 -9.82 -25.98 -9.33 -26.79 -8.82 -27.61 -8.33 -28.4 -7.81 -29.24 -7.31 -30.01 -6.78 -30.85 -6.25 -31.65 -5.73 -32.47 -5.2 -33.28 -4.67 -34.09 -4.13 -34.88 -3.57 -35.69 -3.03 -36.51 -2.49 -37.3 -1.94 -38.1 -1.39 -38.89 -0.84 -39.7 -0.28 0 0zm-134.92 -153.23l134.92 0 0 153.23 -134.92 0 -1.53 -153.21 1.53 -0.02zm-1.53 0.02l0.98 -0.02 0.55 0 -1.53 0.02zm-956.75 429.38l-124.35 -85.85 0 0 15.38 -21.76 16.75 -20.96 18.07 -20.12 19.33 -19.3 20.58 -18.46 21.79 -17.67 22.98 -16.86 24.14 -16.08 25.27 -15.33 26.41 -14.59 27.56 -13.89 28.68 -13.17 29.79 -12.51 30.91 -11.83 32.05 -11.2 33.18 -10.56 34.31 -9.94 35.46 -9.32 36.59 -8.72 37.74 -8.13 38.89 -7.54 40.06 -6.98 41.22 -6.37 42.38 -5.83 43.57 -5.25 44.72 -4.69 45.93 -4.13 47.1 -3.57 48.26 -3.02 49.49 -2.46 50.65 -1.91 51.86 -1.37 3.06 153.19 -50.23 1.33 -48.94 1.85 -47.65 2.38 -46.39 2.9 -45.1 3.41 -43.8 3.94 -42.51 4.46 -41.22 4.96 -39.93 5.48 -38.62 5.98 -37.31 6.48 -36.01 6.99 -34.69 7.48 -33.36 7.95 -32.03 8.43 -30.7 8.9 -29.36 9.33 -28.02 9.79 -26.69 10.21 -25.34 10.63 -24 11.03 -22.62 11.4 -21.3 11.78 -19.98 12.1 -18.65 12.43 -17.32 12.71 -16.05 13.01 -14.78 13.26 -13.55 13.52 -12.37 13.77 -11.19 14.01 -10.11 14.29 0 0zm-256.13 792.86l0 153.23 -75.06 -76.61 0.19 -39.19 0.57 -38.57 0.97 -37.99 1.36 -37.36 1.76 -36.74 2.13 -36.13 2.52 -35.53 2.93 -34.93 3.31 -34.32 3.73 -33.72 4.11 -33.12 4.51 -32.52 4.91 -31.91 5.32 -31.33 5.73 -30.72 6.14 -30.13 6.55 -29.52 6.95 -28.94 7.38 -28.34 7.8 -27.76 8.23 -27.17 8.65 -26.56 9.1 -25.99 9.52 -25.38 9.97 -24.77 10.41 -24.19 10.88 -23.62 11.33 -22.99 11.75 -22.37 12.23 -21.78 12.71 -21.19 13.18 -20.54 124.35 85.85 -10.69 16.68 -10.39 17.31 -10.11 18 -9.83 18.69 -9.53 19.33 -9.2 19.99 -8.9 20.7 -8.6 21.4 -8.29 22.07 -7.96 22.72 -7.63 23.44 -7.31 24.12 -6.96 24.8 -6.63 25.48 -6.3 26.16 -5.95 26.87 -5.61 27.53 -5.26 28.23 -4.91 28.88 -4.54 29.59 -4.21 30.25 -3.84 30.93 -3.48 31.62 -3.13 32.28 -2.75 32.95 -2.4 33.63 -2.03 34.31 -1.65 34.97 -1.3 35.64 -0.93 36.3 -0.55 36.98 -0.19 37.63 -75.06 -76.61zm0 153.23l-75.06 0 0 -76.61 75.06 76.61zm2546.9 0l-2546.9 0 0 -153.23 2546.9 0 75.06 76.61 -75.06 76.61zm75.06 -76.61l0 76.61 -75.06 0 75.06 -76.61z"/>
   <path id="1" class="fil1" d="M2638.84 76.61l0 6472.83 455.4 0 1551.76 -3029.84 2833.64 0 -2226.44 3856.16 2732.44 4183.24 -3002.31 0 -1889.09 -3288.06 -455.4 0 0 3288.06 -2563.78 0 0 -11482.39 2563.78 0zm19936.66 8796.86l2496.31 0c0,1262.43 -317.66,2039.97 -952.98,2332.62 -635.32,292.65 -1498.34,438.99 -2589.07,438.99 -1529.27,0 -2583.44,-263.97 -3162.54,-791.89 -579.1,-527.92 -868.65,-1583.77 -868.65,-3167.56 0,-1526.4 233.34,-2610.93 699.98,-3253.63 466.65,-642.7 1481.47,-964.05 3044.48,-964.05 1338.11,0 2310.77,232.4 2917.98,697.2 607.2,464.82 910.81,1431.71 910.81,2900.72l0 929.61 -5043.21 0c0,608.27 64.67,1067.33 193.98,1377.2 129.31,309.88 536.92,464.8 1222.85,464.8 359.82,0 635.31,-60.25 826.46,-180.76 191.17,-120.51 292.37,-375.85 303.61,-766.06l0 -17.2zm33.74 -2324.03c0,-424.64 -89.97,-734.51 -269.88,-929.61 -179.91,-195.11 -489.13,-292.65 -927.69,-292.65l-134.92 0c-550.99,11.48 -891.15,114.76 -1020.46,309.86 -129.31,195.11 -193.96,499.24 -193.96,912.4l2546.9 0z"/>
  </g>
  <g>
   <path class="fil0" d="M8808.45 5822.66l2597.49 6.12 -0.37 153.23 -2597.49 -6.12 -74.88 -76.79 75.25 -76.44zm-0.37 153.23l-75.06 -0.17 0.18 -76.61 74.88 76.79zm1002.73 -2256.02l45.71 145.96 0 0 -59.37 21 -57.34 23.61 -55.36 26.21 -53.41 28.8 -51.47 31.41 -49.59 34.02 -47.72 36.65 -45.87 39.31 -44.06 41.98 -42.27 44.71 -40.48 47.44 -38.7 50.19 -36.91 53 -35.14 55.82 -33.35 58.67 -31.55 61.52 -29.75 64.41 -27.92 67.28 -26.08 70.2 -24.24 73.11 -22.39 76.01 -20.5 78.93 -18.62 81.85 -16.72 84.76 -14.81 87.67 -12.9 90.59 -10.97 93.49 -9.04 96.41 -7.09 99.31 -5.15 102.19 -3.19 105.09 -1.25 107.97 -150.12 -0.35 1.27 -110.87 3.29 -108.11 5.31 -105.39 7.33 -102.66 9.36 -99.94 11.4 -97.2 13.45 -94.51 15.5 -91.78 17.58 -89.07 19.64 -86.37 21.74 -83.65 23.84 -80.93 25.94 -78.24 28.06 -75.51 30.21 -72.8 32.34 -70.05 34.53 -67.32 36.7 -64.55 38.88 -61.77 41.07 -58.97 43.27 -56.14 45.47 -53.28 47.64 -50.39 49.82 -47.48 51.98 -44.54 54.12 -41.55 56.21 -38.57 58.29 -35.56 60.36 -32.56 62.35 -29.51 64.35 -26.49 66.31 -23.47 0 0zm2461.09 -333.59l-0.37 153.23 0 0 -87.61 0.12 -86.83 0.77 -86.06 1.42 -85.25 2.08 -84.5 2.74 -83.7 3.38 -82.91 4.03 -82.15 4.69 -81.35 5.33 -80.57 6 -79.78 6.63 -79 7.29 -78.22 7.95 -77.43 8.59 -76.65 9.24 -75.88 9.89 -75.06 10.54 -74.31 11.19 -73.51 11.83 -72.73 12.49 -71.94 13.12 -71.15 13.78 -70.36 14.42 -69.59 15.07 -68.82 15.72 -68.01 16.35 -67.23 17 -66.45 17.65 -65.67 18.28 -64.88 18.93 -64.09 19.58 -63.32 20.22 -45.71 -145.96 65.12 -20.79 65.87 -20.11 66.64 -19.44 67.4 -18.77 68.15 -18.1 68.92 -17.43 69.68 -16.76 70.44 -16.08 71.2 -15.42 71.96 -14.75 72.72 -14.08 73.49 -13.41 74.25 -12.74 75 -12.07 75.76 -11.42 76.53 -10.74 77.29 -10.07 78.03 -9.41 78.82 -8.75 79.57 -8.07 80.33 -7.41 81.09 -6.75 81.85 -6.09 82.62 -5.41 83.38 -4.77 84.15 -4.1 84.89 -3.42 85.66 -2.78 86.44 -2.1 87.18 -1.44 87.95 -0.79 88.72 -0.12 0 0zm2799.98 441.87l-53.17 143.3 0 0 -69.5 -26.25 -70.56 -25.43 -71.62 -24.61 -72.65 -23.81 -73.71 -22.98 -74.77 -22.16 -75.83 -21.34 -76.89 -20.52 -77.93 -19.71 -78.99 -18.87 -80.06 -18.06 -81.11 -17.24 -82.15 -16.41 -83.22 -15.59 -84.26 -14.76 -85.33 -13.94 -86.38 -13.11 -87.44 -12.28 -88.49 -11.46 -89.54 -10.63 -90.61 -9.79 -91.65 -8.98 -92.72 -8.14 -93.75 -7.31 -94.82 -6.48 -95.87 -5.65 -96.93 -4.81 -97.98 -3.99 -99.02 -3.16 -100.08 -2.32 -101.13 -1.49 -102.19 -0.66 0.37 -153.23 103.39 0.66 102.36 1.51 101.35 2.36 100.31 3.2 99.29 4.03 98.26 4.89 97.23 5.73 96.21 6.57 95.18 7.43 94.15 8.26 93.14 9.12 92.1 9.96 91.1 10.82 90.04 11.66 89.03 12.5 88.01 13.36 86.98 14.21 85.96 15.06 84.94 15.9 83.91 16.76 82.89 17.63 81.85 18.46 80.85 19.32 79.81 20.18 78.79 21.03 77.77 21.9 76.75 22.73 75.72 23.61 74.69 24.46 73.66 25.33 72.64 26.19 71.62 27.04 0 0zm1164.3 2553.42l-150.12 -0.35 0 0 -0.79 -125.09 -2.96 -121.86 -5.14 -118.63 -7.29 -115.41 -9.45 -112.16 -11.59 -108.92 -13.76 -105.67 -15.88 -102.43 -18.01 -99.18 -20.13 -95.94 -22.24 -92.67 -24.35 -89.42 -26.43 -86.16 -28.5 -82.92 -30.57 -79.66 -32.62 -76.43 -34.66 -73.2 -36.67 -69.99 -38.7 -66.77 -40.7 -63.59 -42.71 -60.45 -44.69 -57.29 -46.7 -54.19 -48.71 -51.1 -50.73 -48.05 -52.75 -45.02 -54.81 -42 -56.89 -39.02 -59 -36.07 -61.13 -33.1 -63.3 -30.16 -65.49 -27.21 53.17 -143.3 72.4 30.07 70.18 33.45 67.95 36.8 65.7 40.16 63.41 43.5 61.08 46.82 58.75 50.12 56.38 53.42 54 56.66 51.62 59.89 49.22 63.09 46.81 66.27 44.43 69.41 42.02 72.55 39.66 75.64 37.28 78.74 34.93 81.82 32.59 84.91 30.24 87.96 27.92 91.02 25.61 94.08 23.31 97.14 21.03 100.19 18.75 103.25 16.49 106.31 14.23 109.37 11.98 112.45 9.73 115.51 7.5 118.58 5.26 121.67 3.02 124.74 0.81 127.83 0 0zm-162.33 5181.34l12.2 -5181.69 150.12 0.35 -12.2 5181.69 -75.25 76.44 -74.88 -76.79zm150.12 0.35l-0.18 76.61 -75.06 -0.17 75.25 -76.44zm-2638.64 -82.82l2563.76 6.04 -0.37 153.23 -2563.76 -6.04 -74.58 -83.43 74.95 -69.8zm-0.37 153.23l-81.87 -0.19 7.29 -83.23 74.58 83.43zm178.93 -1257.39l-103.98 1187.59 -149.53 -13.62 103.98 -1187.59 74.95 -69.8 74.58 83.43zm-74.58 -83.43l81.87 0.19 -7.29 83.23 -74.58 -83.43zm-101.2 -0.25l101.2 0.25 -0.37 153.23 -101.2 -0.25 -73.89 -89.05 74.26 -64.18zm-74.26 64.18l10.38 -64.33 63.88 0.15 -74.26 64.18zm-474.26 982.25l-71.41 -134.79 0 0 27.83 -15.89 27.08 -16.53 26.36 -17.2 25.63 -17.84 24.89 -18.48 24.18 -19.15 23.49 -19.8 22.77 -20.46 22.08 -21.13 21.39 -21.78 20.7 -22.46 20.02 -23.14 19.34 -23.82 18.67 -24.5 17.99 -25.2 17.32 -25.9 16.66 -26.61 16 -27.33 15.32 -28.02 14.66 -28.77 14 -29.5 13.31 -30.23 12.66 -30.98 11.98 -31.71 11.31 -32.49 10.63 -33.21 9.95 -33.99 9.27 -34.75 8.58 -35.48 7.89 -36.28 7.2 -37.03 6.51 -37.8 148.14 24.88 -7.08 41.06 -7.85 40.38 -8.63 39.71 -9.44 39.03 -10.23 38.31 -11.01 37.64 -11.84 36.95 -12.61 36.24 -13.43 35.55 -14.24 34.85 -15.04 34.13 -15.86 33.43 -16.66 32.71 -17.48 31.99 -18.29 31.25 -19.11 30.52 -19.91 29.78 -20.73 29.02 -21.53 28.28 -22.35 27.51 -23.14 26.74 -23.93 25.97 -24.73 25.19 -25.51 24.42 -26.31 23.62 -27.06 22.83 -27.84 22.05 -28.63 21.24 -29.35 20.44 -30.12 19.65 -30.86 18.84 -31.61 18.06 0 0zm-1078.46 324.2l-24.35 -151.21 5.76 -0.73 34.87 -3.27 34.67 -3.69 34.52 -4.1 34.3 -4.49 34.14 -4.9 33.94 -5.31 33.75 -5.73 33.59 -6.14 33.4 -6.53 33.2 -6.94 33.03 -7.35 32.84 -7.77 32.67 -8.16 32.48 -8.58 32.3 -8.98 32.13 -9.4 31.93 -9.79 31.75 -10.21 31.59 -10.61 31.41 -11.02 31.22 -11.43 31.06 -11.84 30.87 -12.24 30.69 -12.65 30.53 -13.05 30.34 -13.47 30.17 -13.88 30 -14.3 29.83 -14.69 29.63 -15.09 29.49 -15.52 29.3 -15.92 71.41 134.79 -31.04 16.86 -31.23 16.44 -31.42 16.01 -31.61 15.56 -31.78 15.14 -31.99 14.72 -32.16 14.27 -32.34 13.85 -32.55 13.41 -32.71 12.96 -32.89 12.55 -33.1 12.1 -33.25 11.67 -33.45 11.24 -33.63 10.8 -33.81 10.37 -33.99 9.95 -34.18 9.51 -34.36 9.07 -34.53 8.63 -34.7 8.2 -34.89 7.76 -35.08 7.35 -35.25 6.89 -35.41 6.46 -35.59 6.04 -35.8 5.6 -35.94 5.17 -36.12 4.74 -36.3 4.3 -36.47 3.87 -36.66 3.43 5.76 -0.73zm-24.35 -151.21l2.75 -0.46 3.01 -0.27 -5.76 0.73zm-398.35 194.24l-5.64 -153.13 0 0 12.89 -0.52 12.87 -0.56 12.85 -0.62 12.84 -0.66 12.82 -0.73 12.79 -0.77 12.82 -0.83 12.77 -0.86 12.72 -0.91 12.76 -0.97 12.71 -1.01 12.69 -1.07 12.7 -1.1 12.64 -1.15 12.64 -1.23 12.66 -1.26 12.61 -1.31 12.59 -1.36 12.58 -1.41 12.56 -1.45 12.54 -1.51 12.53 -1.55 12.51 -1.6 12.5 -1.66 12.48 -1.71 12.49 -1.76 12.44 -1.8 12.43 -1.85 12.41 -1.9 12.38 -1.95 12.4 -2 12.37 -2.05 24.35 151.21 -12.96 2.13 -12.95 2.1 -13.03 2.05 -13 1.98 -13.04 1.95 -13.03 1.88 -13.04 1.84 -13.07 1.79 -13.09 1.73 -13.1 1.69 -13.12 1.63 -13.15 1.57 -13.15 1.53 -13.17 1.47 -13.18 1.42 -13.2 1.37 -13.19 1.32 -13.24 1.27 -13.28 1.22 -13.24 1.16 -13.29 1.11 -13.31 1.05 -13.29 1.01 -13.36 0.97 -13.36 0.9 -13.33 0.85 -13.38 0.81 -13.41 0.75 -13.41 0.7 -13.42 0.64 -13.44 0.6 -13.46 0.54 0 0zm-399.39 7.73l0.37 -153.23 -0.01 0 11.52 0.02 11.58 0 11.59 -0.01 11.67 -0.04 11.72 -0.04 11.73 -0.07 11.86 -0.08 11.85 -0.09 11.93 -0.12 11.98 -0.12 12 -0.14 12.07 -0.16 12.13 -0.18 12.17 -0.19 12.19 -0.21 12.28 -0.23 12.33 -0.23 12.35 -0.27 12.43 -0.29 12.47 -0.3 12.5 -0.32 12.58 -0.33 12.66 -0.35 12.64 -0.36 12.69 -0.39 12.81 -0.39 12.81 -0.41 12.84 -0.44 12.97 -0.45 12.97 -0.45 13 -0.48 13.07 -0.5 5.64 153.13 -13.24 0.5 -13.2 0.48 -13.13 0.47 -13.05 0.45 -13.06 0.44 -13.01 0.41 -12.91 0.41 -12.92 0.39 -12.87 0.36 -12.77 0.35 -12.72 0.35 -12.72 0.32 -12.65 0.3 -12.59 0.29 -12.57 0.27 -12.49 0.26 -12.46 0.23 -12.42 0.21 -12.36 0.19 -12.3 0.18 -12.26 0.16 -12.24 0.16 -12.14 0.12 -12.11 0.12 -12.09 0.09 -11.98 0.08 -12 0.07 -11.91 0.04 -11.86 0.04 -11.86 0.01 -11.76 0 -11.72 -0.02 -0.01 0zm-1963.84 -534.4l84.87 -126.41 0 0 45.29 30.9 46.15 29.93 47 28.97 47.84 28.01 48.7 27.02 49.55 26.08 50.41 25.1 51.3 24.15 52.14 23.18 53 22.21 53.88 21.24 54.74 20.27 55.62 19.31 56.5 18.34 57.35 17.36 58.25 16.39 59.12 15.43 60 14.45 60.87 13.47 61.75 12.5 62.65 11.51 63.51 10.54 64.4 9.55 65.29 8.58 66.17 7.59 67.05 6.6 67.93 5.62 68.81 4.64 69.7 3.64 70.57 2.66 71.47 1.66 72.35 0.66 -0.37 153.23 -74.37 -0.68 -73.55 -1.71 -72.71 -2.74 -71.87 -3.76 -71.04 -4.78 -70.2 -5.8 -69.37 -6.84 -68.54 -7.85 -67.7 -8.88 -66.87 -9.92 -66.02 -10.97 -65.19 -11.98 -64.36 -13.01 -63.52 -14.06 -62.67 -15.1 -61.84 -16.13 -60.99 -17.17 -60.17 -18.22 -59.31 -19.26 -58.48 -20.29 -57.62 -21.35 -56.78 -22.39 -55.92 -23.44 -55.08 -24.49 -54.22 -25.52 -53.37 -26.57 -52.51 -27.64 -51.64 -28.68 -50.78 -29.73 -49.92 -30.77 -49.05 -31.81 -48.17 -32.86 0 0zm-770.49 -1889.91l150.12 0.35 0 0 0.52 79.59 1.96 77.99 3.37 76.39 4.79 74.8 6.22 73.19 7.61 71.59 9.03 69.97 10.44 68.39 11.82 66.79 13.23 65.17 14.61 63.57 15.98 61.98 17.37 60.39 18.74 58.78 20.12 57.21 21.47 55.62 22.83 54.04 24.18 52.47 25.53 50.92 26.88 49.36 28.23 47.82 29.59 46.29 30.92 44.76 32.27 43.24 33.64 41.76 34.98 40.26 36.36 38.79 37.73 37.31 39.11 35.86 40.5 34.4 41.9 32.96 43.31 31.51 -84.87 126.41 -47.85 -34.81 -46.35 -36.45 -44.85 -38.09 -43.32 -39.72 -41.81 -41.35 -40.28 -42.97 -38.74 -44.57 -37.19 -46.17 -35.64 -47.75 -34.07 -49.34 -32.53 -50.89 -30.96 -52.45 -29.41 -53.99 -27.84 -55.54 -26.31 -57.05 -24.75 -58.58 -23.18 -60.07 -21.65 -61.58 -20.11 -63.09 -18.58 -64.57 -17.04 -66.07 -15.53 -67.56 -14 -69.05 -12.49 -70.53 -10.99 -72.01 -9.48 -73.5 -7.98 -74.98 -6.48 -76.46 -4.99 -77.94 -3.51 -79.43 -2.02 -80.93 -0.54 -82.41 0 0zm850.48 -2172.1l78.31 130.72 0 0 -47.11 30.87 -45.59 32.86 -44.1 34.89 -42.64 36.92 -41.17 38.96 -39.71 41.01 -38.28 43.1 -36.84 45.19 -35.4 47.29 -33.98 49.43 -32.55 51.56 -31.1 53.72 -29.66 55.88 -28.22 58.07 -26.76 60.24 -25.31 62.44 -23.83 64.65 -22.36 66.85 -20.87 69.06 -19.37 71.26 -17.88 73.49 -16.37 75.69 -14.86 77.9 -13.34 80.13 -11.82 82.31 -10.28 84.53 -8.74 86.74 -7.21 88.94 -5.66 91.15 -4.12 93.33 -2.57 95.54 -1.01 97.72 -150.12 -0.35 1.03 -100.26 2.63 -98.17 4.24 -96.09 5.84 -94.01 7.46 -91.94 9.07 -89.86 10.67 -87.78 12.31 -85.72 13.93 -83.64 15.55 -81.6 17.21 -79.5 18.84 -77.45 20.5 -75.39 22.16 -73.33 23.83 -71.24 25.5 -69.18 27.19 -67.1 28.88 -65.02 30.59 -62.91 32.27 -60.83 34 -58.72 35.71 -56.59 37.43 -54.45 39.15 -52.3 40.86 -50.13 42.59 -47.96 44.3 -45.75 46.01 -43.54 47.68 -41.29 49.37 -39.05 51.02 -36.79 52.67 -34.51 0 0zm2233.23 -513.93l-0.35 153.23 -0.01 0 -85.03 0.3 -83.89 1.27 -82.75 2.26 -81.61 3.24 -80.46 4.22 -79.31 5.21 -78.19 6.19 -77.04 7.15 -75.89 8.14 -74.76 9.11 -73.6 10.1 -72.47 11.06 -71.31 12.03 -70.17 13 -69.04 13.97 -67.88 14.94 -66.74 15.9 -65.6 16.87 -64.45 17.83 -63.32 18.8 -62.16 19.74 -61.04 20.71 -59.89 21.66 -58.74 22.63 -57.62 23.57 -56.47 24.52 -55.34 25.47 -54.23 26.42 -53.07 27.36 -51.96 28.31 -50.83 29.25 -49.7 30.2 -78.31 -130.72 52.77 -32.06 53.87 -31.01 54.98 -29.96 56.1 -28.91 57.19 -27.87 58.3 -26.84 59.41 -25.79 60.5 -24.76 61.6 -23.71 62.71 -22.68 63.8 -21.65 64.88 -20.62 65.99 -19.58 67.07 -18.57 68.17 -17.52 69.27 -16.51 70.35 -15.47 71.43 -14.46 72.54 -13.45 73.62 -12.42 74.72 -11.41 75.81 -10.39 76.9 -9.38 77.99 -8.36 79.09 -7.35 80.17 -6.33 81.27 -5.33 82.36 -4.32 83.45 -3.32 84.55 -2.3 85.64 -1.31 86.75 -0.3 -0.01 0zm143.36 0.34l-0.35 153.23 -0.01 0 -4.72 -0.01 -4.72 -0.01 -4.7 -0.01 -4.77 -0.01 -4.68 -0.02 -4.58 -0.01 -4.64 -0.01 -4.63 -0.01 -4.6 -0.01 -4.6 -0.01 -4.57 -0.01 -4.55 -0.01 -4.54 -0.01 -4.51 -0.01 -4.5 -0.01 -4.49 -0.01 -4.47 -0.01 -4.45 -0.01 -4.44 -0.01 -4.42 -0.01 -4.4 -0.01 -4.39 -0.01 -4.38 -0.01 -4.36 -0.01 -4.34 -0.01 -4.32 -0.01 -4.31 -0.01 -4.29 -0.01 -4.27 -0.01 -4.26 -0.01 -4.24 -0.01 -4.22 -0.01 0.35 -153.23 4.24 0.01 4.24 0.01 4.26 0.01 4.27 0.01 4.29 0.01 4.31 0.01 4.32 0.01 4.34 0.01 4.36 0.01 4.36 0.01 4.39 0.01 4.4 0.01 4.42 0.01 4.44 0.01 4.45 0.01 4.47 0.01 4.49 0.01 4.5 0.01 4.51 0.01 4.54 0.01 4.55 0.01 4.57 0.01 4.6 0.01 4.6 0.01 4.63 0.01 4.64 0.01 4.72 0.01 4.68 0.02 4.61 0.01 4.7 0.01 4.72 0.01 4.76 0.01 -0.01 0zm145.8 0.38l-5.21 153.15 2.41 0.04 -4.22 -0.01 -4.24 -0.01 -4.26 -0.01 -4.28 -0.01 -4.29 -0.01 -4.31 -0.01 -4.32 -0.01 -4.34 -0.01 -4.36 -0.01 -4.36 -0.01 -4.39 -0.01 -4.41 -0.01 -4.42 -0.01 -4.43 -0.01 -4.54 -0.01 -4.47 -0.02 -4.4 -0.01 -4.5 -0.01 -4.52 -0.01 -4.53 -0.01 -4.55 -0.01 -4.58 -0.01 -4.59 -0.01 -4.61 -0.01 -4.62 -0.01 -4.64 -0.01 -4.65 -0.01 -4.67 -0.01 -4.69 -0.01 -4.7 -0.01 -4.72 -0.01 -4.75 -0.01 0.35 -153.23 4.73 0.01 4.72 0.01 4.7 0.01 4.69 0.01 4.67 0.01 4.67 0.01 4.64 0.01 4.62 0.01 4.61 0.01 4.59 0.01 4.58 0.01 4.55 0.01 4.53 0.01 4.52 0.01 4.5 0.01 4.57 0.01 4.47 0.02 4.38 0.01 4.43 0.01 4.42 0.01 4.41 0.01 4.39 0.01 4.38 0.01 4.36 0.01 4.34 0.01 4.32 0.01 4.31 0.01 4.29 0.01 4.28 0.01 4.26 0.01 4.24 0.01 4.24 0.01 2.41 0.04zm-2.41 -0.04l1.35 0 1.06 0.04 -2.41 -0.04zm1025.74 178.12l-45.55 146.02 -0.01 -0.01 -29.43 -9.42 -29.5 -9.16 -29.61 -8.88 -29.68 -8.64 -29.75 -8.36 -29.86 -8.11 -29.91 -7.84 -30.01 -7.58 -30.08 -7.31 -30.18 -7.05 -30.26 -6.79 -30.33 -6.53 -30.42 -6.26 -30.52 -6 -30.58 -5.74 -30.68 -5.47 -30.74 -5.21 -30.83 -4.94 -30.93 -4.69 -31 -4.42 -31.11 -4.16 -31.17 -3.9 -31.25 -3.63 -31.35 -3.37 -31.42 -3.1 -31.53 -2.85 -31.59 -2.57 -31.68 -2.32 -31.77 -2.05 -31.85 -1.8 -31.92 -1.52 -32.04 -1.26 5.21 -153.15 33.24 1.32 33.17 1.58 33.08 1.86 33 2.13 32.95 2.4 32.83 2.7 32.75 2.95 32.69 3.23 32.6 3.51 32.52 3.77 32.44 4.06 32.35 4.32 32.28 4.61 32.18 4.87 32.12 5.15 32.03 5.43 31.94 5.7 31.86 5.98 31.78 6.25 31.69 6.53 31.62 6.79 31.53 7.08 31.44 7.35 31.36 7.62 31.28 7.9 31.2 8.17 31.11 8.46 31.04 8.71 30.94 9.01 30.85 9.27 30.77 9.55 30.7 9.82 -0.01 -0.01zm680.25 704.9l24.33 151.21 -81.01 -45.06 -14.3 -32.65 -14.72 -31.85 -15.17 -31.07 -15.57 -30.26 -16.02 -29.47 -16.42 -28.69 -16.86 -27.89 -17.29 -27.12 -17.69 -26.33 -18.11 -25.54 -18.55 -24.79 -18.95 -24.02 -19.37 -23.25 -19.77 -22.48 -20.21 -21.73 -20.62 -20.99 -21.04 -20.23 -21.47 -19.5 -21.89 -18.75 -22.31 -18.03 -22.75 -17.3 -23.18 -16.57 -23.62 -15.85 -24.07 -15.14 -24.51 -14.42 -24.98 -13.72 -25.42 -13 -25.91 -12.3 -26.37 -11.59 -26.83 -10.88 -27.34 -10.17 -27.81 -9.47 45.55 -146.02 31.75 10.82 31.28 11.64 30.81 12.49 30.31 13.33 29.83 14.15 29.34 15 28.84 15.84 28.33 16.67 27.83 17.5 27.3 18.32 26.8 19.15 26.27 19.98 25.75 20.78 25.19 21.61 24.67 22.4 24.14 23.21 23.6 24.01 23.05 24.8 22.53 25.6 21.97 26.38 21.43 27.14 20.89 27.93 20.35 28.71 19.81 29.47 19.25 30.23 18.74 31 18.2 31.75 17.66 32.52 17.13 33.26 16.6 34.01 16.06 34.75 15.54 35.51 -81.01 -45.06zm24.33 151.21l-57.7 9.68 -23.31 -54.74 81.01 45.06zm101.24 -16.98l-101.24 16.98 -24.33 -151.21 101.24 -16.98 87.23 75.78 -62.9 75.43zm62.9 -75.43l-0.15 64.9 -62.75 10.53 62.9 -75.43zm3.45 -1463.27l-3.45 1463.27 -150.12 -0.35 3.45 -1463.27 150.12 0.35zm-381.88 -741.77l94.53 -119.06 0 0.01 18.43 15.89 17.8 16.7 17.2 17.49 16.55 18.28 15.91 19.02 15.3 19.79 14.62 20.51 14 21.23 13.37 21.93 12.75 22.65 12.1 23.35 11.49 24.02 10.86 24.69 10.25 25.36 9.66 26.03 9.06 26.72 8.46 27.36 7.88 28.01 7.29 28.68 6.73 29.34 6.16 30 5.59 30.64 5.05 31.3 4.48 32.01 3.93 32.63 3.39 33.29 2.85 33.98 2.3 34.65 1.78 35.3 1.24 35.98 0.7 36.65 0.17 37.34 -150.12 -0.35 -0.17 -35.11 -0.66 -34.34 -1.15 -33.57 -1.63 -32.81 -2.13 -32.02 -2.62 -31.24 -3.1 -30.49 -3.56 -29.71 -4.05 -28.9 -4.53 -28.14 -4.99 -27.37 -5.44 -26.57 -5.91 -25.77 -6.37 -25 -6.8 -24.23 -7.25 -23.44 -7.67 -22.63 -8.11 -21.87 -8.54 -21.11 -8.94 -20.32 -9.34 -19.55 -9.75 -18.79 -10.15 -18.04 -10.53 -17.31 -10.94 -16.57 -11.32 -15.85 -11.68 -15.14 -12.09 -14.44 -12.47 -13.77 -12.87 -13.08 -13.27 -12.45 -13.67 -11.81 0 0.01zm-804.2 -200.09l0.37 -153.23 0 0 37.42 0.31 36.83 0.73 36.19 1.16 35.59 1.59 34.99 2.03 34.38 2.46 33.77 2.9 33.16 3.34 32.56 3.78 31.98 4.22 31.35 4.68 30.74 5.11 30.17 5.57 29.56 6.02 28.97 6.46 28.37 6.93 27.77 7.39 27.2 7.86 26.58 8.33 26 8.8 25.4 9.29 24.8 9.77 24.21 10.26 23.62 10.77 22.99 11.26 22.4 11.76 21.78 12.28 21.18 12.79 20.56 13.32 19.91 13.83 19.29 14.36 18.65 14.89 -94.53 119.06 -14.6 -11.66 -15.27 -11.36 -15.91 -11.05 -16.55 -10.72 -17.24 -10.42 -17.9 -10.09 -18.6 -9.76 -19.27 -9.45 -19.92 -9.08 -20.64 -8.75 -21.32 -8.4 -22.01 -8.05 -22.71 -7.7 -23.4 -7.33 -24.09 -6.96 -24.79 -6.6 -25.47 -6.22 -26.17 -5.85 -26.86 -5.46 -27.55 -5.08 -28.25 -4.7 -28.92 -4.31 -29.61 -3.91 -30.29 -3.51 -30.97 -3.11 -31.67 -2.72 -32.33 -2.32 -33.03 -1.91 -33.69 -1.51 -34.38 -1.1 -35.05 -0.7 -35.72 -0.29 0 0zm-761.92 141.62l-78.88 -130.37 0.01 0 17.62 -10.72 18.2 -10.3 18.75 -9.91 19.3 -9.49 19.83 -9.11 20.41 -8.72 20.97 -8.34 21.49 -7.97 22.04 -7.61 22.62 -7.25 23.16 -6.88 23.69 -6.54 24.25 -6.19 24.84 -5.85 25.38 -5.51 25.95 -5.17 26.49 -4.84 27.06 -4.51 27.64 -4.18 28.21 -3.86 28.76 -3.53 29.33 -3.22 29.92 -2.9 30.49 -2.57 31.07 -2.26 31.64 -1.94 32.2 -1.63 32.82 -1.32 33.36 -1 33.98 -0.69 34.54 -0.38 35.14 -0.07 -0.37 153.23 -33.83 0.07 -33.19 0.36 -32.57 0.67 -31.93 0.96 -31.29 1.26 -30.67 1.55 -30.02 1.84 -29.37 2.13 -28.74 2.43 -28.08 2.72 -27.47 3.01 -26.8 3.29 -26.16 3.57 -25.49 3.87 -24.88 4.15 -24.2 4.41 -23.54 4.7 -22.89 4.96 -22.22 5.24 -21.58 5.51 -20.92 5.76 -20.24 6.03 -19.58 6.27 -18.91 6.53 -18.26 6.76 -17.58 7 -16.9 7.23 -16.26 7.46 -15.58 7.67 -14.91 7.86 -14.24 8.08 -13.61 8.27 0.01 0zm-319.54 699.38l0.37 -153.23 74.88 76.84 -149.99 -5 0.21 -4.6 0.41 -7.53 0.65 -10.2 0.92 -12.7 1.24 -15.06 1.61 -17.24 2.01 -19.23 2.46 -21.09 2.97 -22.81 3.5 -24.36 4.11 -25.74 4.74 -26.96 5.42 -28.04 6.15 -28.95 6.93 -29.76 7.79 -30.35 8.66 -30.81 9.63 -31.15 10.63 -31.3 11.72 -31.33 12.86 -31.19 14.08 -30.9 15.38 -30.48 16.79 -29.87 18.25 -29.12 19.85 -28.19 21.54 -27.05 23.33 -25.71 25.23 -24.15 27.19 -22.3 29.14 -20.17 78.88 130.37 -18.78 13 -17.93 14.73 -17.18 16.47 -16.44 18.15 -15.68 19.7 -14.89 21.16 -14.1 22.5 -13.28 23.66 -12.46 24.68 -11.63 25.53 -10.79 26.21 -9.99 26.72 -9.18 27.03 -8.4 27.19 -7.64 27.18 -6.91 26.96 -6.2 26.57 -5.54 26.05 -4.89 25.33 -4.29 24.45 -3.72 23.37 -3.2 22.13 -2.69 20.73 -2.24 19.17 -1.83 17.45 -1.45 15.52 -1.11 13.45 -0.82 11.23 -0.55 8.83 -0.35 6.3 -0.17 3.68 -150.09 -2.59 74.88 76.84zm0.37 -153.23l75.1 0.17 -0.22 76.67 -74.88 -76.84zm61.75 3936.67l-41.18 147.35 0 0.01 -27.34 -8.69 -26.61 -9.97 -25.88 -11.22 -25.14 -12.53 -24.33 -13.81 -23.47 -15.06 -22.62 -16.33 -21.72 -17.57 -20.8 -18.77 -19.86 -19.97 -18.88 -21.11 -17.92 -22.22 -16.95 -23.32 -15.97 -24.39 -15 -25.43 -14.04 -26.43 -13.08 -27.43 -12.15 -28.41 -11.21 -29.38 -10.31 -30.32 -9.42 -31.29 -8.54 -32.24 -7.67 -33.19 -6.81 -34.15 -5.97 -35.09 -5.13 -36.03 -4.31 -36.99 -3.5 -37.97 -2.68 -38.92 -1.89 -39.89 -1.08 -40.87 -0.3 -41.84 150.12 0.35 0.28 38.88 1 37.73 1.73 36.58 2.45 35.45 3.16 34.29 3.86 33.15 4.55 31.99 5.24 30.82 5.91 29.66 6.59 28.49 7.23 27.32 7.88 26.16 8.5 25.01 9.11 23.85 9.7 22.69 10.28 21.57 10.86 20.45 11.41 19.34 11.97 18.26 12.5 17.21 13.06 16.2 13.61 15.21 14.14 14.23 14.74 13.3 15.33 12.4 15.96 11.51 16.63 10.67 17.28 9.82 17.99 8.96 18.79 8.16 19.57 7.31 20.35 6.46 0 0.01zm856.4 111.02l-0.37 153.23 0 0 -31.01 -0.18 -30.79 -0.41 -30.63 -0.62 -30.43 -0.86 -30.24 -1.07 -30.02 -1.3 -29.86 -1.51 -29.68 -1.75 -29.45 -1.96 -29.29 -2.19 -29.09 -2.41 -28.91 -2.65 -28.7 -2.86 -28.52 -3.07 -28.32 -3.31 -28.15 -3.53 -27.93 -3.77 -27.74 -3.97 -27.59 -4.21 -27.37 -4.43 -27.18 -4.66 -26.97 -4.88 -26.81 -5.11 -26.6 -5.34 -26.41 -5.56 -26.24 -5.79 -26.01 -6.02 -25.85 -6.24 -25.64 -6.47 -25.45 -6.7 -25.27 -6.92 -25.07 -7.16 41.18 -147.35 23.58 6.73 23.8 6.52 24 6.31 24.19 6.11 24.4 5.89 24.62 5.69 24.81 5.48 25.02 5.27 25.21 5.06 25.42 4.84 25.64 4.64 25.85 4.43 26.04 4.23 26.23 4 26.47 3.79 26.66 3.58 26.86 3.37 27.07 3.17 27.26 2.95 27.49 2.74 27.69 2.52 27.88 2.31 28.1 2.1 28.31 1.88 28.49 1.69 28.72 1.45 28.92 1.26 29.12 1.03 29.33 0.82 29.52 0.6 29.75 0.39 29.94 0.18 0 0zm851.39 -139.56l51.72 143.85 -0.01 0 -25.27 9.27 -25.47 8.99 -25.66 8.66 -25.83 8.37 -26.06 8.09 -26.24 7.76 -26.41 7.48 -26.63 7.19 -26.82 6.87 -26.99 6.58 -27.21 6.28 -27.38 5.98 -27.58 5.68 -27.76 5.39 -27.96 5.09 -28.15 4.79 -28.34 4.49 -28.52 4.21 -28.73 3.9 -28.88 3.59 -29.1 3.32 -29.3 3.01 -29.46 2.72 -29.67 2.42 -29.83 2.12 -30.04 1.85 -30.23 1.53 -30.42 1.25 -30.6 0.96 -30.79 0.65 -30.97 0.37 -31.17 0.07 0.37 -153.23 29.78 -0.07 29.57 -0.35 29.38 -0.63 29.17 -0.9 28.95 -1.18 28.74 -1.47 28.54 -1.75 28.36 -2.02 28.14 -2.3 27.93 -2.57 27.71 -2.85 27.52 -3.14 27.33 -3.41 27.09 -3.68 26.91 -3.96 26.71 -4.23 26.49 -4.52 26.29 -4.78 26.08 -5.07 25.89 -5.33 25.68 -5.62 25.47 -5.87 25.28 -6.17 25.08 -6.42 24.84 -6.7 24.69 -6.99 24.46 -7.25 24.27 -7.52 24.07 -7.8 23.87 -8.07 23.65 -8.33 23.47 -8.62 -0.01 0zm340.45 -658.97l150.12 0.33 0 0.01 -0.48 37.82 -1.29 37.03 -2.07 36.25 -2.89 35.47 -3.7 34.7 -4.51 33.95 -5.35 33.16 -6.19 32.39 -7.04 31.63 -7.87 30.83 -8.75 30.09 -9.64 29.3 -10.51 28.49 -11.41 27.72 -12.32 26.88 -13.22 26.07 -14.14 25.24 -15.05 24.37 -15.97 23.49 -16.88 22.59 -17.81 21.7 -18.72 20.74 -19.59 19.77 -20.47 18.8 -21.33 17.82 -22.17 16.81 -22.99 15.79 -23.77 14.77 -24.57 13.75 -25.33 12.71 -26.05 11.68 -26.77 10.67 -51.72 -143.85 21.01 -8.36 20.21 -9.07 19.44 -9.75 18.67 -10.46 17.95 -11.13 17.23 -11.85 16.55 -12.54 15.86 -13.25 15.22 -13.98 14.58 -14.73 13.96 -15.47 13.34 -16.25 12.76 -17.05 12.15 -17.89 11.58 -18.73 10.96 -19.56 10.38 -20.48 9.78 -21.36 9.16 -22.24 8.55 -23.18 7.92 -24.11 7.28 -25.04 6.65 -26.01 5.99 -26.93 5.31 -27.88 4.66 -28.83 3.96 -29.76 3.27 -30.74 2.58 -31.67 1.87 -32.62 1.16 -33.56 0.44 -34.49 0 0.01zm0.14 -60.26l150.12 0.35 0 0 0 1.69 -0.01 1.63 0 1.66 -0.01 1.66 0 1.45 0 1.94 -0.01 1.73 0 1.74 -0.01 1.75 0 1.55 0 2.01 -0.01 1.81 0 1.83 -0.01 1.83 0 1.86 -0.01 1.88 0 1.89 -0.01 1.91 0 1.71 0 2.14 -0.01 1.96 0 1.97 -0.01 2 0 2 -0.01 2.02 0 2.04 -0.01 2.05 0 2.08 -0.01 2.08 0 2.11 -0.01 2.12 0 2.12 -150.12 -0.33 0 -2.17 0.01 -2.12 0 -2.11 0.01 -2.08 0 -2.08 0.01 -2.05 0 -2.04 0.01 -2.04 0 -2 0.01 -2 0 -1.97 0.01 -1.96 0 -1.74 0 -2.13 0.01 -1.91 0 -1.89 0.01 -1.88 0 -1.86 0.01 -1.85 0 -1.83 0.01 -1.81 0 -1.56 0 -2 0.01 -1.77 0 -1.74 0.01 -1.73 0 -1.47 0 -1.94 0.01 -1.66 0 -1.66 0.01 -1.63 0 -1.56 0 0zm0.1 -43.04l150.12 0.35 0 0.03 0 1.24 -0.01 1.09 0 0.77 0 1.13 0 1.49 -0.01 1.16 0 0.85 0 1.54 -0.01 1.21 0 0.91 0 1.25 0 1.59 -0.01 1.29 0 0.98 0 1.62 -0.01 1.33 0 1.06 0 1.66 -0.01 1.38 0 1.11 0 1.71 -0.01 1.43 0 1.17 0 1.75 -0.01 1.48 0 1.24 0 1.79 -0.01 1.54 0 1.29 0 1.83 -0.01 1.59 0 1.53 -150.12 -0.35 0 -1.67 0.01 -1.59 0 -1.32 0 -1.82 0.01 -1.54 0 -1.26 0 -1.77 0.01 -1.5 0 -1.19 0 -1.73 0.01 -1.45 0 -1.13 0 -1.69 0.01 -1.4 0 -1.07 0 -1.65 0.01 -1.35 0 -1.01 0 -1.61 0.01 -1.29 0 -0.96 0 -1.25 0 -1.56 0.01 -1.23 0 -0.87 0 -1.52 0.01 -1.18 0 -0.8 0 -1.13 0 -1.48 0.01 -1.11 0 -0.93 0 0.03zm-30.28 -237.25l144.45 -41.77 0 0.01 2.26 8.28 2.15 8.23 2.1 8.3 2.03 8.35 1.96 8.39 1.89 8.46 1.8 8.39 1.75 8.49 1.65 8.51 1.58 8.49 1.53 8.62 1.44 8.61 1.38 8.63 1.3 8.66 1.22 8.65 1.16 8.73 1.08 8.74 1.02 8.78 0.93 8.82 0.88 8.84 0.79 8.87 0.74 8.9 0.64 8.94 0.58 8.92 0.52 8.99 0.44 9.07 0.36 9.06 0.3 9.03 0.23 9.11 0.15 9.14 0.08 9.16 0.01 9.19 -150.12 -0.35 -0.01 -7.99 -0.08 -7.96 -0.13 -7.89 -0.19 -7.88 -0.26 -7.88 -0.32 -7.79 -0.38 -7.7 -0.44 -7.72 -0.5 -7.73 -0.56 -7.65 -0.61 -7.61 -0.68 -7.57 -0.74 -7.54 -0.81 -7.5 -0.86 -7.46 -0.92 -7.43 -0.98 -7.38 -1.05 -7.4 -1.09 -7.31 -1.15 -7.28 -1.22 -7.24 -1.27 -7.15 -1.36 -7.22 -1.39 -7.14 -1.46 -7.1 -1.51 -7.11 -1.56 -6.99 -1.63 -6.99 -1.69 -6.94 -1.76 -6.93 -1.83 -6.94 -1.85 -6.83 0 0.01zm-107.43 -166.59l90.38 -122.37 2.99 2.43 7.18 6.23 7.11 6.38 6.91 6.44 6.75 6.48 6.68 6.65 6.48 6.7 6.39 6.81 6.28 6.96 6.08 6.99 5.93 7.07 5.84 7.22 5.66 7.29 5.48 7.32 5.4 7.49 5.25 7.61 5.07 7.64 4.92 7.74 4.76 7.8 4.6 7.87 4.48 8.02 4.33 8.13 4.13 8.13 4 8.24 3.83 8.32 3.67 8.36 3.54 8.52 3.35 8.56 3.2 8.59 3.02 8.67 2.89 8.74 2.74 8.9 2.54 8.87 -144.45 41.77 -1.77 -6.14 -1.84 -5.97 -1.97 -5.98 -2.08 -5.95 -2.18 -5.87 -2.27 -5.78 -2.36 -5.68 -2.5 -5.71 -2.58 -5.61 -2.7 -5.57 -2.82 -5.54 -2.88 -5.41 -3.01 -5.38 -3.15 -5.38 -3.25 -5.33 -3.35 -5.27 -3.45 -5.21 -3.55 -5.14 -3.67 -5.1 -3.85 -5.14 -3.92 -5.05 -4.02 -4.97 -4.18 -4.98 -4.3 -4.94 -4.36 -4.84 -4.53 -4.83 -4.69 -4.84 -4.76 -4.73 -4.95 -4.77 -5.03 -4.69 -5.13 -4.61 -5.32 -4.62 2.99 2.43zm90.38 -122.37l1.48 1.13 1.51 1.3 -2.99 -2.43zm-377.66 -20.87l41.59 -147.24 0.01 0.01 11.75 3.52 11.68 3.64 11.61 3.76 11.52 3.85 11.44 3.97 11.34 4.07 11.31 4.19 11.24 4.32 11.11 4.41 11.03 4.51 10.97 4.64 10.89 4.76 10.82 4.86 10.69 4.96 10.65 5.09 10.56 5.21 10.48 5.3 10.39 5.42 10.32 5.54 10.21 5.64 10.13 5.75 10.07 5.87 9.99 5.98 9.89 6.11 9.78 6.19 9.72 6.31 9.63 6.43 9.54 6.53 9.47 6.66 9.36 6.76 9.28 6.88 9.19 6.98 -90.38 122.37 -7.72 -5.87 -7.81 -5.78 -7.87 -5.68 -7.96 -5.6 -8.03 -5.5 -8.12 -5.41 -8.19 -5.33 -8.29 -5.25 -8.35 -5.15 -8.42 -5.05 -8.52 -4.97 -8.6 -4.87 -8.68 -4.8 -8.75 -4.7 -8.83 -4.61 -8.93 -4.52 -9.01 -4.43 -9.08 -4.33 -9.2 -4.27 -9.24 -4.17 -9.33 -4.06 -9.42 -3.98 -9.52 -3.9 -9.62 -3.82 -9.63 -3.71 -9.75 -3.62 -9.89 -3.54 -9.93 -3.44 -10.03 -3.36 -10.1 -3.27 -10.19 -3.17 -10.28 -3.09 0.01 0.01zm-368.03 -67.38l18.97 -152 -3.06 -0.34 13.03 1.18 12.98 1.25 12.95 1.32 12.89 1.38 12.87 1.46 12.81 1.53 12.74 1.6 12.71 1.66 12.65 1.74 12.6 1.81 12.56 1.87 12.51 1.95 12.47 2.01 12.45 2.08 12.38 2.17 12.33 2.23 12.28 2.3 12.21 2.37 12.18 2.43 12.14 2.51 12.12 2.58 12.04 2.66 11.99 2.72 11.94 2.8 11.9 2.86 11.85 2.93 11.81 2.99 11.79 3.08 11.7 3.16 11.66 3.22 11.6 3.29 11.57 3.35 -41.59 147.24 -10.61 -3.08 -10.66 -3.02 -10.7 -2.95 -10.76 -2.89 -10.78 -2.82 -10.87 -2.77 -10.91 -2.71 -10.98 -2.63 -11.02 -2.57 -11.07 -2.51 -11.12 -2.45 -11.14 -2.38 -11.22 -2.31 -11.28 -2.27 -11.34 -2.19 -11.38 -2.13 -11.43 -2.06 -11.48 -2 -11.51 -1.94 -11.59 -1.87 -11.65 -1.81 -11.68 -1.75 -11.74 -1.69 -11.8 -1.61 -11.86 -1.56 -11.9 -1.48 -11.95 -1.43 -11.99 -1.36 -12.05 -1.3 -12.11 -1.24 -12.16 -1.16 -12.21 -1.1 -3.06 -0.34zm3.06 0.34l-1.44 -0.12 -1.62 -0.21 3.06 0.34zm-272.02 -17.58l0.37 -153.23 0 0 9.24 0.04 9.18 0.07 9.22 0.11 9.15 0.14 9.14 0.17 9.21 0.2 9.16 0.26 9.05 0.29 9.12 0.31 9.11 0.36 9.05 0.38 9.08 0.42 9.06 0.46 9 0.49 9 0.52 9.05 0.56 8.96 0.6 8.94 0.62 8.97 0.66 8.91 0.69 8.94 0.73 8.93 0.78 8.85 0.8 8.88 0.84 8.87 0.88 8.81 0.91 8.79 0.94 8.82 0.98 8.81 1.01 8.75 1.04 8.78 1.08 8.73 1.12 -18.97 152 -8.14 -1.04 -8.13 -1 -8.2 -0.98 -8.16 -0.95 -8.19 -0.9 -8.24 -0.88 -8.26 -0.85 -8.24 -0.82 -8.25 -0.78 -8.32 -0.76 -8.29 -0.71 -8.3 -0.68 -8.37 -0.65 -8.33 -0.62 -8.4 -0.58 -8.43 -0.56 -8.35 -0.52 -8.45 -0.48 -8.49 -0.47 -8.45 -0.42 -8.47 -0.4 -8.52 -0.36 -8.5 -0.34 -8.53 -0.29 -8.62 -0.27 -8.55 -0.23 -8.54 -0.2 -8.63 -0.15 -8.64 -0.14 -8.63 -0.09 -8.67 -0.07 -8.67 -0.04 0 0zm-261.44 -0.61l0.37 -153.23 0 0 7.38 0.02 7.44 0.01 7.55 0.02 7.56 0.02 7.55 0.02 7.65 0.01 7.75 0.02 7.75 0.02 7.75 0.02 7.85 0.01 7.94 0.02 7.95 0.02 8 0.02 8.05 0.02 8.1 0.02 8.1 0.02 8.19 0.01 8.28 0.02 8.29 0.02 8.34 0.02 8.39 0.02 8.45 0.02 8.49 0.02 8.54 0.02 8.6 0.02 8.64 0.02 8.68 0.02 8.73 0.02 8.79 0.02 8.83 0.02 8.88 0.02 8.95 0.02 -0.37 153.23 -8.93 -0.02 -8.88 -0.02 -8.83 -0.02 -8.79 -0.02 -8.75 -0.02 -8.68 -0.02 -8.64 -0.02 -8.6 -0.02 -8.54 -0.02 -8.49 -0.02 -8.45 -0.02 -8.39 -0.02 -8.34 -0.02 -8.29 -0.02 -8.2 -0.02 -8.19 -0.01 -8.2 -0.02 -8.1 -0.02 -8.05 -0.02 -8 -0.02 -7.95 -0.02 -7.85 -0.02 -7.85 -0.01 -7.85 -0.02 -7.75 -0.02 -7.65 -0.02 -7.65 -0.01 -7.65 -0.02 -7.56 -0.02 -7.44 -0.02 -7.47 -0.01 -7.42 -0.02 0 0zm-772.99 130.15l-56.66 -141.89 0.01 0 21.81 -8.87 22.07 -8.57 22.35 -8.28 22.61 -7.99 22.89 -7.7 23.16 -7.41 23.41 -7.11 23.68 -6.82 23.96 -6.55 24.2 -6.25 24.49 -5.97 24.76 -5.67 25 -5.39 25.28 -5.11 25.54 -4.82 25.82 -4.54 26.07 -4.25 26.33 -3.97 26.61 -3.69 26.86 -3.41 27.14 -3.13 27.4 -2.84 27.65 -2.57 27.93 -2.29 28.2 -2 28.46 -1.74 28.72 -1.45 28.98 -1.16 29.26 -0.91 29.52 -0.61 29.79 -0.35 30.06 -0.06 -0.37 153.23 -28.71 0.06 -28.4 0.33 -28.12 0.59 -27.81 0.85 -27.55 1.12 -27.23 1.37 -26.95 1.63 -26.64 1.9 -26.36 2.17 -26.07 2.41 -25.77 2.68 -25.47 2.94 -25.18 3.19 -24.88 3.46 -24.61 3.71 -24.3 3.96 -24 4.22 -23.7 4.47 -23.42 4.74 -23.14 4.98 -22.84 5.24 -22.53 5.48 -22.24 5.74 -21.96 5.99 -21.66 6.25 -21.36 6.5 -21.08 6.74 -20.78 6.99 -20.49 7.25 -20.22 7.49 -19.9 7.73 -19.63 7.98 0.01 0zm-433.91 616.72l150.12 0.35 -150.12 -0.35 0.41 -35.52 1.09 -34.79 1.78 -34.05 2.45 -33.31 3.14 -32.59 3.83 -31.85 4.52 -31.15 5.25 -30.43 5.95 -29.68 6.67 -28.99 7.42 -28.27 8.16 -27.52 8.91 -26.81 9.67 -26.07 10.47 -25.35 11.22 -24.56 12.03 -23.83 12.84 -23.05 13.62 -22.25 14.45 -21.45 15.25 -20.61 16.05 -19.76 16.86 -18.88 17.65 -17.99 18.41 -17.08 19.18 -16.16 19.95 -15.21 20.66 -14.24 21.33 -13.26 22.03 -12.29 22.68 -11.3 23.32 -10.32 56.66 141.89 -17.19 7.61 -16.55 8.25 -15.92 8.87 -15.33 9.52 -14.74 10.15 -14.16 10.82 -13.64 11.48 -13.12 12.17 -12.62 12.87 -12.12 13.59 -11.64 14.33 -11.18 15.11 -10.69 15.87 -10.23 16.7 -9.75 17.51 -9.25 18.35 -8.79 19.23 -8.28 20.08 -7.77 20.95 -7.27 21.84 -6.73 22.74 -6.2 23.61 -5.65 24.52 -5.1 25.43 -4.53 26.31 -3.95 27.21 -3.38 28.12 -2.79 28.99 -2.21 29.88 -1.59 30.76 -0.99 31.65 -0.39 32.54 -150.12 -0.35zm150.17 -16.87l-0.04 17.22 -150.12 -0.35 0.04 -17.22 150.12 0.35z"/>
   <path id="1" class="fil2" d="M11405.76 5905.39l-2597.49 -6.12c2.78,-1182.1 344.57,-1884.23 1025.4,-2106.42 680.82,-222.2 1493.51,-332.18 2438.05,-329.96 1101.98,2.59 2026.49,148.21 2773.58,436.9 747.1,288.67 1119.04,1115.87 1115.82,2481.59l-12.2 5181.69 -2563.76 -6.04 103.98 -1187.59 -101.2 -0.25c-68.46,424.47 -263.14,725.29 -584.04,902.42 -320.88,177.13 -672.53,282.46 -1054.93,315.99 -134.98,22.65 -272.76,36.66 -413.34,42.08 -140.57,5.4 -272.69,7.97 -396.39,7.68 -787.1,-1.86 -1427.64,-175.53 -1921.6,-520.99 -493.94,-345.46 -739.91,-954.29 -737.86,-1826.53 2.51,-1067.32 274.04,-1769.62 814.57,-2106.91 540.54,-337.3 1271.84,-504.85 2193.9,-502.67 44.97,0.1 92.76,0.21 143.36,0.34 50.59,0.11 98.39,0.22 143.37,0.34 348.54,12.3 682.94,70.45 1003.16,174.51 320.24,104.04 558.63,339.86 715.19,707.5l101.24 -16.98 3.45 -1463.27c0.91,-390.21 -85.61,-657.24 -259.55,-801.12 -173.95,-143.85 -457.72,-216.25 -851.28,-217.18 -371.06,-0.88 -638.24,50.14 -801.54,153.05 -263.23,165.91 -279.93,691.37 -279.92,687.95zm-344.8 3166.75c-1.02,436.11 127.69,691.78 386.14,766.97 258.44,75.21 550.72,113.2 876.81,113.96 326.1,0.77 618.57,-47.32 877.43,-144.25 258.85,-96.95 388.73,-340.52 389.65,-730.73 0.05,-22.95 0.1,-43.04 0.14,-60.25 0.04,-17.22 0.07,-31.56 0.1,-43.04 0.21,-91.8 -10.83,-177.91 -33.12,-258.31 -22.31,-80.39 -67.12,-149.36 -134.46,-206.89 -89.79,-69.08 -193.69,-120.96 -311.68,-155.68 -117.99,-34.7 -244.42,-57.95 -379.34,-69.76 -89.92,-11.68 -182.69,-17.63 -278.26,-17.85 -95.58,-0.22 -182.73,-0.43 -261.44,-0.61 -314.85,-0.75 -582.01,44.53 -801.5,135.82 -219.48,91.31 -329.65,320.57 -330.52,687.84l0.04 -17.22z"/>
  </g>
 </g>
</svg>
